<?xml version="1.0" encoding="UTF-8"?>
<!DOCTYPE svg PUBLIC "-//W3C//DTD SVG 1.1//EN" "http://www.w3.org/Graphics/SVG/1.1/DTD/svg11.dtd">
<!-- Creator: CorelDRAW -->
<svg xmlns="http://www.w3.org/2000/svg" xml:space="preserve" width="141.258mm" height="168.567mm" version="1.1"
  style="shape-rendering:geometricPrecision; text-rendering:geometricPrecision; image-rendering:optimizeQuality; fill-rule:evenodd; clip-rule:evenodd"
  viewBox="0 0 14125.75 16856.73" xmlns:xlink="http://www.w3.org/1999/xlink"
  xmlns:xodm="http://www.corel.com/coreldraw/odm/2003">
  <defs>
    <style type="text/css">
      <![CDATA[
      .str0 {
        stroke: #dfe622;
        stroke-width: 18.83;
        stroke-miterlimit: 22.9256
      }

      .str3 {
        stroke: black;
        stroke-width: 282.52;
        stroke-linejoin: round;
        stroke-miterlimit: 22.9256
      }

      .str1 {
        stroke: black;
        stroke-width: 376.69;
        stroke-linejoin: round;
        stroke-miterlimit: 22.9256
      }

      .str2 {
        stroke: black;
        stroke-width: 235.43;
        stroke-linejoin: round;
        stroke-miterlimit: 22.9256
      }

      .fil1 {
        fill: none
      }

      .fil0 {
        fill: #f4ff54
      }
      ]]>
    </style>
  </defs>
  <g id="Layer_x0020_1">
    <metadata id="CorelCorpID_0Corel-Layer" />
    <path class="fil0 str0"
      d="M1541.52 8115.18l11241.98 0 0 2125.91 58.4 0 0 1392.91 -19.47 0 0 19.47 -19.47 0 0 19.47 -19.47 0 0 19.47 -38.93 0 0 19.47 -19.46 0 0 19.47 -19.47 0 0 19.47 -38.93 0 0 19.47 -58.4 0 -58.4 38.93 -38.93 0 -19.47 19.47 -58.39 0 -19.47 19.47 -77.86 0 -19.47 19.47c-49.17,0 -9.23,19.46 -58.4,19.46l-19.47 0 -19.46 19.47 -38.93 0 0 19.47 -38.93 0 0 19.47 -19.47 0 0 19.47 -77.86 19.47 0 19.47 -38.93 0 -19.47 38.93 -77.85 0 -253.04 77.86 -49.86 0 0 -19.47 -486.61 0 -19.47 -19.47 -136.25 0 -19.47 -19.47 -506.08 0 -19.47 -19.47 -97.33 0 -19.47 -19.47 -525.54 0 0 -19.47 -233.57 0 -19.47 -19.47c-64.41,0 -127.57,-19.47 -214.11,-19.47l-19.47 -19.47 -58.4 0 -19.46 -19.47 -155.72 0 -19.47 -19.47 -58.4 0 -19.46 -19.47 -194.65 0c-23.82,-9.86 13.64,-19.46 -58.39,-19.46l-19.47 -19.47 -77.86 0 0 -19.47c-47.42,-23.71 -29.32,-19.47 -77.86,-19.47l-19.47 -19.47 -38.93 0c0,-24.76 4.28,-15.18 -19.46,-38.93l-58.4 0 -19.47 -19.47 -38.93 0 -19.47 -19.47 -38.93 0 0 -19.47 -19.47 0 0 -19.47 -19.47 0 0 -291.97 -55.2 -55.2c-191.26,-716.8 -1107.93,-1028.19 -1696.65,-493.2 -145.55,132.27 -249.75,302.93 -301.74,490.01l-76.56 0 0 291.97 -175.19 0c-23.82,9.86 13.64,19.46 -58.39,19.46l0 19.47 -58.4 0 0 19.47 -97.33 0 0 19.47 -77.86 19.47 -58.39 38.93 -77.86 19.47 0 19.47 -38.93 0 0 19.47 -19.47 0 0 19.47 -58.4 0 0 19.47 -38.92 0 -58.4 58.39 -38.93 0 0 19.47 -58.4 0 -38.93 19.47 0 19.47 -58.39 0 -19.47 19.47 -38.93 0 -19.47 19.47c-31.67,0 -40.75,7.09 -77.86,19.47l0 19.47 -1723.81 0 -19.47 -19.47 -38.93 0 -19.47 -19.47 -77.85 0 0 -19.47 -136.26 0 -19.47 -19.47 -97.32 0 0 -19.47 -38.93 0 -19.47 -19.47 -116.79 0 -19.47 -19.47 -97.32 0 0 -19.47 -136.26 0c-23.83,-9.86 13.64,-19.46 -58.39,-19.46l0 -19.47 -38.93 0 0 -19.47 -97.33 0 -19.47 -19.47 -77.85 0 0 -19.47 -58.4 0 -19.47 -19.47 -506.08 0 0 -817.51 -73.21 -963.85 14.81 -59.24 19.47 0 0 -19.47 19.47 0 0 -58.39 19.47 0 0 -19.47 38.93 0 0 -1717.15z" />
    <g id="_2102723932976">
      <g>
        <path class="fil0"
          d="M8737.51 7599.13l39.35 0 0 -19.68 39.36 0 0 -19.67 39.35 0 19.68 -19.68c33.18,0 55.91,-16.56 78.72,-39.36 33.18,0 55.91,-16.55 78.72,-39.35l59.04 0 0 -19.68 669.12 0c60.81,-60.84 76.41,-29.53 118.07,-39.36l157.44 -78.72 46.45 -9.29c-1992.92,180.39 -2762.75,166.15 -4752.85,112.24 -23.44,-0.63 -46.9,-1.33 -70.36,-2.07l0 17.2 216.48 0 78.72 39.36 39.35 0 78.73 39.35 39.35 0 59.04 39.36 59.05 0 78.72 39.35 98.4 19.68c54.64,5.41 111.15,-32.73 152.03,-39.36l2091.45 0 0 19.68 486.59 0zm-6537.42 -1634.1l9815.47 0 -9815.47 0zm470.32 -576.75l8923.27 -1.38 -8923.27 1.38zm4501.44 -4296.76l-24.09 2055.34 24.09 -2055.34zm1653.65 105.82l-17.1 1265.1 17.1 -1265.1zm-3322.11 1.17l0 1248.01 0 -1248.01zm-4061.95 4137.41l105.68 -77.06 -105.68 77.06c0.41,32.53 1.27,64.85 3,96.72 -1.73,-31.88 -2.59,-64.2 -3,-96.72zm12235.67 691l-898.32 -655.02c3.6,-350.02 -67.74,-735.58 -196.87,-1125.72l52.16 52.16 98.4 0 0 373.92 19.68 0c0,72.82 9.7,34.95 19.67,59.04l0 216.47 19.68 0 0 78.72 19.68 19.68 0 39.36 19.68 0c0,110.59 9.58,55.6 19.68,98.4l0 39.35c6.9,16.66 19.67,0.41 19.67,39.36l19.68 19.67 0 39.36 19.68 0 0 39.35 59.04 0 0 137.76 59.04 0 19.68 19.68 59.05 0 19.67 19.67 59.05 0 0 19.68 19.67 0 0 19.68 59.05 19.68 0 19.68 39.35 0 0 19.67 19.68 0 19.68 39.36 19.68 0 0 19.68 39.35 0 0 19.67 19.68 0 0 19.68 39.35 19.68 0 19.68 19.68 0 0 19.67 39.36 19.68 0 19.68 19.67 0 0 19.68 19.68 0 0 19.68 19.68 0 0 19.67 19.68 0 0 19.68 19.68 0 39.35 39.36 0 19.67 19.68 0 0 55.81zm-898.32 -655.02c-0.36,34.76 -1.24,69.25 -3.1,103.28 1.86,-34.02 2.74,-68.52 3.1,-103.28l-81.11 -59.15 81.11 59.15zm-2695.98 1942.42l51.95 -10.39 78.72 -39.36 98.4 0 98.4 -19.68 19.68 -19.67 531.35 0c108.67,0 55.36,-9.52 98.39,-19.68l59.05 0 0 -19.68 157.44 0 19.68 -19.68 19.67 0c109.23,0 55.25,-9.49 98.4,-19.68l78.72 0c36.51,0 19.98,-11.65 39.36,-19.67l440.31 0c496.21,-51.94 1050.54,-111.21 1676.62,-178.68l28.16 -3.03 0 -56.66 0 -861.52 -898.32 -655.02c3.6,-350.02 -67.74,-735.58 -196.87,-1125.72l-6.87 -6.87 0 -13.83c-4.35,-12.95 -8.85,-25.9 -13.33,-38.86l-6.36 -6.36c0,-4.17 0.04,-8.13 0.09,-11.88 -12.23,-34.94 -24.99,-69.88 -38.12,-104.84l-1.34 -1.35 0 -2.2c-248.67,-660.92 -654.59,-1320.46 -1134.05,-1828.01l-125.45 0 -39.35 -19.68c-24.09,-9.97 13.8,-19.67 -59.05,-19.67l-19.67 -19.68 -39.36 0 -39.36 -39.36 -39.35 0 0 -242.6c-111.3,-92.66 -225.15,-176.22 -340.64,-249.39l-137.06 0 -191.41 0 0 -0.08 0 -19.61 -39.36 0 0 -19.68 -39.35 0 0 -19.67 -39.36 0c-44.34,0 -69.31,-29.96 -98.4,-59.05l-19.68 0c-50.32,0 -67.76,-39.35 -118.07,-39.35 -75.51,0 -39.02,-10.32 -98.4,-39.36l-98.4 -39.35c-38.54,-22.37 -41.57,-39.36 -78.72,-39.36l-39.35 -19.68 0 -19.67 -19.68 0c-88.99,0 -39.18,-19.68 -98.4,-19.68l-19.68 -19.68 -59.04 0 -19.68 -19.68 -39.35 0 0 -19.67 -295.2 0 0 -19.68 -19.68 0 0 -19.68 -59.04 -39.36 -39.36 0 -7.67 -11.52c-430,-57.67 -798.13,-56.89 -1245.37,-86.92 -229.19,-15.38 -456.9,-23.66 -684.68,-24.86 -542.25,-2.87 -1084.79,7.23 -1648.03,70.99 -10.02,4.2 -19.99,8.51 -29.9,12.96l-39.36 19.68 -186.88 0c-454.36,64.47 -923.82,166.93 -1418.74,328.07 -274.93,141.04 -543.81,345.39 -795.3,592.74l0 4.14 -4.14 0c-10.39,10.25 -20.72,20.64 -31.05,31.03l-43.53 87.05 -19.68 0 -39.35 39.35 0 19.68 -36.38 0 -2.99 3.3 0 16.39 -14.85 0 -10.76 11.88 -13.74 27.47 -10.56 0 -9.13 10.41 0 9.28 -8.14 0c-10.45,11.99 -20.87,24.05 -31.25,36.17l0.03 3.18 -2.73 0c-123.64,144.76 -241.32,299.14 -351.51,460.27l0 110.44 -39.36 39.35 0 19.68 -19.68 0 0 39.36 -19.67 0 0 19.67 -39.36 19.68 0 19.68 -19.68 0 0 19.68 -19.68 0 0 19.67 -48.11 16.04 -10.92 18.51 0 24.49 -14.32 0 -5.36 9.37 0 10.31 -5.91 0.03c-116.45,202.91 -220.35,412.21 -308.96,623.04l0 46.04c-10.1,6.73 -18.69,12.28 -26.09,17.04 -199.91,493.43 -314.4,992.3 -308.75,1433.81l-936.76 683.06 0 890.41c1090.77,126.59 2287.83,321.27 3498.45,433.91l646.4 0 19.67 19.68 39.36 0 19.68 19.68 137.75 0 0 19.67 236.15 0c73.92,0 47.1,11.88 77.89,19.48l5.92 0.2 73.62 0 0 2.49c23.46,0.74 46.92,1.44 70.36,2.07 1990.1,53.9 2759.94,68.14 4752.85,-112.24zm2492.24 -3088.85l0 -25.53 -13.33 -13.33c4.47,12.96 8.97,25.91 13.33,38.86zm-19.59 -57.1c0.65,-45.47 3.33,-62.98 -38.12,-104.84 13.13,34.96 25.89,69.9 38.12,104.84zm-39.46 -108.39l0 -37.16c0,-72.82 -9.7,-34.95 -19.67,-59.04l0 -137.76 -19.68 -19.67 0 -157.45 -19.68 -19.67 0 -78.72 -19.68 0 0 -78.72 -19.67 0 0 -78.73 -19.68 -19.67 0 -19.68 -19.68 0 0 -78.72 -39.35 0 -19.68 -19.68 0 -78.72c-6.06,-6.06 -12.94,-12.65 -19.81,-19.68l-157.3 0 -19.68 -19.68 0 -39.35 -19.68 0 0 -19.68 -39.35 -19.68 0 -19.67 -19.68 0 0 -39.36 -39.36 -19.68 0 -295.19 -19.67 0 0 -19.68 -39.36 -19.68 0 -19.68 -19.68 0c-41.91,-41.91 -26.76,-33.06 -78.72,-59.04l0 -19.68 -19.68 0 0 -19.67 -59.04 -19.68 0 -19.68 -19.68 0 -59.04 -59.04 -19.68 0c-23.99,-24.01 -19.67,-14.33 -19.67,-39.36l-19.68 0 0 -19.68 -19.68 0 0 -19.67 -19.68 0 0 -19.68c-41.9,-41.9 -33.06,-26.79 -59.04,-78.72l-19.68 0 0 -19.68 -130.39 0c479.47,507.56 885.38,1167.1 1134.05,1828.01zm-1495.65 -2169.01l0 -72.28 -19.68 0 0 -19.68 -19.68 0 -59.04 -59.04 -19.68 0 0 -19.68 -19.67 0 0 -19.68 -59.05 -19.68 0 -19.67 -39.35 0 0 -19.68 -104.48 0c115.49,73.17 229.34,156.73 340.64,249.39zm-2015.01 -733.23l-31.68 -47.52c-63.85,-63.84 -38.71,-30.21 -78.72,-59.04 -35.25,-25.41 -52.09,-65.92 -78.72,-98.4l-1568.98 0 0 59.04 -1515.34 0c-101.48,33.83 -205.75,63.73 -304.65,105.12 563.24,-63.75 1105.78,-73.86 1648.03,-70.99 227.77,1.21 455.49,9.48 684.68,24.86 447.24,30.03 815.38,29.25 1245.37,86.92zm-3834.23 -8.16l-974.22 0 0 19.67 -59.04 19.68 0 19.68 -39.36 19.68 0 19.68 -39.36 0 0 19.67 -19.67 0 -39.36 39.36 0 19.68c-23.9,23.89 -43.62,39.35 -78.72,39.35l-39.36 19.68 0 19.68 -59.04 0 0 19.67 -59.04 0 -39.36 39.36 -39.35 0 -39.36 39.36 -78.72 0 0 19.67 -59.04 0 0 19.68 -78.72 39.36c-49.71,0 -9.33,19.67 -59.05,19.67l0 19.68 -59.04 19.68 -19.68 39.35c-35.1,0 -54.82,15.46 -78.72,39.36l-39.35 0 0 19.68 -39.36 19.68 0 19.67 -78.72 39.36 -98.4 98.4 0 153.29c251.49,-247.34 520.36,-451.69 795.3,-592.74 494.92,-161.14 964.38,-263.6 1418.74,-328.07zm-2218.19 924.94l-15.53 0 -15.52 31.03c10.33,-10.39 20.66,-20.78 31.05,-31.03zm-169.99 177.12l-2.99 0 0 3.3 2.99 -3.3zm-17.84 19.68l-4.82 0 -5.94 11.88 10.76 -11.88zm-35.06 39.35l-9.13 0 0 10.41 9.13 -10.41zm-17.26 19.68l-11.55 0c-22.91,22.93 -20.01,15.14 -19.7,36.17 10.38,-12.12 20.79,-24.18 31.25,-36.17zm-33.95 39.35l-16.95 0 -39.36 59.05 -78.72 19.68 -19.68 39.35 -19.67 0 0 19.68 -39.36 0 0 19.68c-48.52,0 -46,-6.4 -78.72,59.04l-59.04 19.68 0 224.11c110.18,-161.14 227.87,-315.51 351.51,-460.27zm-557.06 783.55l-10.92 3.64 0 14.87 10.92 -18.51zm-25.25 43.01l-5.36 0 0 9.37 5.36 -9.37zm-11.27 19.71c-20.92,0.28 -17.28,3.48 -53.12,39.33l0 19.68 -19.68 0 0 39.35 -19.67 0 0 19.68 -19.68 0 0 19.68 -39.36 39.35 0 19.68 -19.68 0c0,49.71 -19.67,9.33 -19.67,59.05l-19.68 0 -19.68 39.35 -19.68 0c0,49.7 -19.67,9.34 -19.67,59.04l-39.36 19.68 0 249.16c88.61,-210.83 192.51,-420.13 308.96,-623.04zm-335.05 686.12c-43.66,28.04 -45.83,28.43 -72.31,81.36l-19.68 0 0 19.67 -19.67 0 0 59.05c-25.03,0 -15.35,-4.32 -39.36,19.67l-19.68 78.73 -39.35 39.35 0 39.36 -19.68 0 0 39.35 -19.68 19.68 0 39.35c-9.97,24.09 -19.67,-13.8 -19.67,59.05l-19.68 19.68 -19.68 78.72 -19.68 19.67 0 59.05 -19.68 19.67 0 39.36 -19.67 0 0 39.36 -19.68 19.67 0 196.8 -19.68 19.68 0 137.75 -19.68 19.68 0 354.24 -39.35 0 0 19.68 -39.36 0 -39.35 39.35 -39.36 0 -19.68 19.68 -59.04 0 -19.68 39.35 -39.35 0 -19.68 19.68 -39.35 0 0 19.68 -59.05 19.68 0 19.68 -59.04 19.67 -19.68 39.36 -19.68 0 -19.67 19.68 -19.68 0 0 19.67 -59.04 19.68 0 19.68 -19.68 0 0 19.68 -39.36 0 -19.68 39.35 -19.67 0 -39.36 39.36 -19.68 0 0 19.68 -19.67 19.67c-39.83,39.83 -34.68,21.2 -59.05,40.91l0 962.76 -19.68 19.67 0 14.28 39.36 0 59.04 39.36 0 19.67 39.36 19.68 19.68 59.04 59.04 39.36 944.63 0 0 19.68c34.34,0 393.59,0 393.59,0 24.09,9.97 -13.8,19.67 59.05,19.67l19.67 19.68 157.45 0c96.41,0 72.28,4.09 157.44,39.36 97.1,40.21 93.7,-4.7 157.44,59.04l118.08 0 0 19.68 177.11 0 19.68 19.68 59.05 0 0 19.67 137.75 0 0 19.68 927.98 0c-1210.62,-112.64 -2407.68,-307.32 -3498.45,-433.91l0 -890.41 936.76 -683.06c-5.65,-441.51 108.84,-940.38 308.75,-1433.81zm10222.14 3224.71l1075.03 0c107.87,0 64.87,-11.05 118.08,-19.68l491.99 0c6.32,-0.62 12.89,-1.48 19.68,-2.5l0 -107.6 0 -51.93 -28.16 3.03c-626.08,67.47 -1180.41,126.75 -1676.62,178.68zm-6792.28 294.99l0.83 0.2 5.09 0 -5.92 -0.2z" />
      </g>
      <path class="fil1 str1"
        d="M1547.13 5258.86l-1042.44 760.12 0 890.41c1488.99,172.8 3176.03,472.51 4825.27,517.18 2917.14,79.02 3211.41,72.96 8580.99,-506.69" />
      <polyline class="fil1 str1" points="12697.69,5312.75 13740.13,6072.87 13740.13,7106.44 " />
      <path class="fil1 str1"
        d="M1444.45 5432.64c-73.68,-1352.65 1054.2,-3311.81 2307.92,-3954.99 1209.32,-393.73 2266.68,-437.29 3322.92,-431.69 227.77,1.21 455.49,9.48 684.68,24.86 875.68,58.79 1447.93,-0.65 2775.53,492.17" />
      <path class="fil1 str1" d="M12775.7 5475.18c73.68,-1352.65 -1048.65,-3308.96 -2302.38,-3952.13" />
      <line class="fil1 str1" x1="5503.4" y1="1198.5" x2="5503.4" y2="2446.51" />
      <line class="fil1 str1" x1="8825.52" y1="1197.34" x2="8808.42" y2="2462.44" />
      <line class="fil1 str1" x1="7171.86" y1="1091.53" x2="7147.77" y2="3146.85" />
      <line class="fil1 str2" x1="2670.42" y1="5388.28" x2="11593.68" y2="5386.89" />
      <line class="fil1 str3" x1="2200.1" y1="5965.02" x2="12015.56" y2="5965.02" />
    </g>
    <polyline class="fil1 str1"
      points="1439.3,11203.36 1453.3,8524.64 1497.45,8413.68 1583.27,8318.78 1693.83,8292.3 5329.9,8288.97 8406.23,8288.15 " />
    <polyline class="fil1 str1"
      points="8406.23,8288.15 12627.14,8292.02 12737.7,8318.5 12823.52,8413.39 12867.68,8524.36 12881.78,11223.71 " />
    <path class="fil1 str1"
      d="M6054.82 11480.02l0 0c-752.06,524.98 -3127.44,975.87 -4561.22,48.77l-50.65 -272.21 -2.38 -28.01 0.22 -34.49" />
    <path class="fil1 str1"
      d="M8267.74 11509.4l0 0c752.06,524.98 3127.44,975.87 4561.22,48.77l50.65 -272.21 2.38 -28.01 -0.22 -34.49" />
    <path class="fil1 str1"
      d="M6027.11 11496.37l80.47 -49.26 71.32 -53.08c23.41,-27.09 47.17,-53.4 71.19,-79.94l300.62 -591.44 75.45 -90.19 117.6 -65.78 117.82 -10.17 596.46 2.62" />
    <path class="fil1 str1"
      d="M8282.01 11514.68l-80.47 -49.26 -71.32 -53.08c-23.41,-27.09 -47.17,-53.4 -71.19,-79.94l-300.62 -591.44 -75.45 -90.19 -124.62 -79.81 -110.79 -13.07 -585.96 -1.38" />
  </g>
</svg>